<?xml version="1.0"?>
<svg xmlns="http://www.w3.org/2000/svg" viewBox="0 0 540 312" role="img" aria-label="図 5-1 if x.nil? のナローイング">
<defs>
 <marker id="flittle51_a" markerWidth="9" markerHeight="9" refX="7.5" refY="4" orient="auto"><path d="M0,0 L8,4 L0,8 Z" fill="var(--rigor-ink,#0E1116)"></path></marker>
 <marker id="flittle51_aA" markerWidth="9" markerHeight="9" refX="7.5" refY="4" orient="auto"><path d="M0,0 L8,4 L0,8 Z" fill="var(--rigor-accent,#7A2A2A)"></path></marker>
 <marker id="flittle51_aE" markerWidth="9" markerHeight="9" refX="7.5" refY="4" orient="auto"><path d="M0,0 L8,4 L0,8 Z" fill="var(--rigor-error,#B5302B)"></path></marker>
 <marker id="flittle51_aK" markerWidth="9" markerHeight="9" refX="7.5" refY="4" orient="auto"><path d="M0,0 L8,4 L0,8 Z" fill="var(--rigor-success,#2E6F3F)"></path></marker>
 <marker id="flittle51_aI" markerWidth="9" markerHeight="9" refX="7.5" refY="4" orient="auto"><path d="M0,0 L8,4 L0,8 Z" fill="var(--rigor-info,#2D5C9E)"></path></marker>
 <marker id="flittle51_aM" markerWidth="9" markerHeight="9" refX="7.5" refY="4" orient="auto"><path d="M0,0 L8,4 L0,8 Z" fill="var(--rigor-type-untyped,#6E7480)"></path></marker>
</defs>
  <title>図 5-1 if x.nil? のナローイング</title>
  <rect style="fill:none;stroke:var(--rigor-ink,#0E1116);stroke-width:1.5" x="186" y="14" width="168" height="40"></rect>
  <text x="270" y="39" text-anchor="middle">x : User | nil</text>
  <line style="fill:none;stroke:var(--rigor-ink,#0E1116);stroke-width:1.5;stroke-linejoin:round;stroke-linecap:round" x1="270" y1="54" x2="270" y2="86" marker-end="url(#flittle51_a)"></line>
  <rect style="fill:var(--rigor-paper-2,#EFEBE0);stroke:var(--rigor-ink,#0E1116);stroke-width:1.5" x="200" y="88" width="140" height="38"></rect>
  <text x="270" y="112" text-anchor="middle">if x.nil?</text>

  <path style="fill:none;stroke:var(--rigor-ink,#0E1116);stroke-width:1.5;stroke-linejoin:round;stroke-linecap:round" d="M270,126 V150 H120 V174" marker-end="url(#flittle51_a)"></path>
  <path style="fill:none;stroke:var(--rigor-ink,#0E1116);stroke-width:1.5;stroke-linejoin:round;stroke-linecap:round" d="M270,126 V150 H420 V174" marker-end="url(#flittle51_a)"></path>
  <text style="font-family:&#39;Inter&#39;,system-ui,sans-serif;font-size:12.5px;fill:var(--rigor-ink-3,#585F6B)" x="120" y="166" text-anchor="middle">then 節</text>
  <text style="font-family:&#39;Inter&#39;,system-ui,sans-serif;font-size:12.5px;fill:var(--rigor-ink-3,#585F6B)" x="420" y="166" text-anchor="middle">else 節</text>

  <rect style="fill:none;stroke:var(--rigor-ink,#0E1116);stroke-width:1.5" x="48" y="176" width="144" height="44"></rect>
  <text x="120" y="203" text-anchor="middle">x : nil</text>
  <rect style="fill:none;stroke:var(--rigor-ink,#0E1116);stroke-width:1.5" x="348" y="176" width="144" height="44"></rect>
  <text x="420" y="203" text-anchor="middle">x : User</text>
  <text style="font-family:&#39;Inter&#39;,system-ui,sans-serif;font-size:12.5px;fill:var(--rigor-type-untyped,#6E7480);font-style:italic" x="420" y="240" text-anchor="middle">nil を除く</text>

  <path style="fill:none;stroke:var(--rigor-ink,#0E1116);stroke-width:1.5;stroke-linejoin:round;stroke-linecap:round" d="M120,220 V258 H270" marker-end="url(#flittle51_aA)"></path>
  <path style="fill:none;stroke:var(--rigor-ink,#0E1116);stroke-width:1.5;stroke-linejoin:round;stroke-linecap:round" d="M420,250 V258 H270" marker-end="url(#flittle51_aA)"></path>
  <rect style="fill:none;stroke:var(--rigor-accent,#7A2A2A);stroke-width:1.5" x="190" y="260" width="160" height="42"></rect>
  <text style="font-family:&#39;JetBrains Mono&#39;,ui-monospace,monospace;font-size:15px;fill:var(--rigor-accent,#7A2A2A)" x="270" y="286" text-anchor="middle">両枝を union</text>

</svg>